<svg width="231" height="85" viewBox="0 0 231 85" fill="none" xmlns="http://www.w3.org/2000/svg">
<path d="M115.298 67C114.53 67 113.906 66.808 113.426 66.424C112.994 65.992 112.682 65.488 112.49 64.912L97.3698 18.76C97.3218 18.52 97.2978 18.304 97.2978 18.112C97.2978 17.728 97.4418 17.392 97.7298 17.104C98.0178 16.768 98.3778 16.6 98.8098 16.6H106.37C107.09 16.6 107.642 16.816 108.026 17.248C108.458 17.632 108.722 17.992 108.818 18.328L120.05 53.536L131.21 18.328C131.354 17.992 131.618 17.632 132.002 17.248C132.386 16.816 132.938 16.6 133.658 16.6H141.218C141.65 16.6 142.01 16.768 142.298 17.104C142.586 17.392 142.73 17.728 142.73 18.112C142.73 18.304 142.706 18.52 142.658 18.76L127.538 64.912C127.394 65.488 127.082 65.992 126.602 66.424C126.17 66.808 125.546 67 124.73 67H115.298Z" fill="#C05F31"/>
<path d="M143.735 51.448C143.522 51.448 143.34 51.3733 143.191 51.224C143.042 51.0747 142.967 50.8933 142.967 50.68V48.12C142.967 47.9067 143.042 47.7253 143.191 47.576C143.34 47.4267 143.522 47.352 143.735 47.352H153.687C153.9 47.352 154.082 47.4267 154.231 47.576C154.38 47.7253 154.455 47.9067 154.455 48.12V50.68C154.455 50.8933 154.38 51.0747 154.231 51.224C154.082 51.3733 153.9 51.448 153.687 51.448H143.735ZM159.402 59C159.168 59 158.976 58.9253 158.826 58.776C158.677 58.6267 158.602 58.4347 158.602 58.2V37.4C158.602 37.1653 158.677 36.9733 158.826 36.824C158.976 36.6747 159.168 36.6 159.402 36.6H167.882C170.549 36.6 172.65 37.2187 174.186 38.456C175.722 39.672 176.49 41.432 176.49 43.736C176.49 45.2933 176.117 46.5947 175.37 47.64C174.624 48.6853 173.621 49.464 172.362 49.976L176.874 57.976C176.938 58.104 176.97 58.2213 176.97 58.328C176.97 58.4987 176.906 58.6587 176.778 58.808C176.65 58.936 176.49 59 176.298 59H172.746C172.362 59 172.074 58.904 171.882 58.712C171.69 58.4987 171.552 58.3067 171.466 58.136L167.562 50.808H163.69V58.2C163.69 58.4347 163.616 58.6267 163.466 58.776C163.317 58.9253 163.125 59 162.89 59H159.402ZM163.69 46.744H167.786C168.96 46.744 169.824 46.4773 170.378 45.944C170.954 45.4107 171.242 44.664 171.242 43.704C171.242 42.744 170.965 41.9867 170.41 41.432C169.856 40.8773 168.981 40.6 167.786 40.6H163.69V46.744ZM187.268 59.32C184.815 59.32 182.863 58.6373 181.412 57.272C179.983 55.9067 179.225 53.9227 179.14 51.32C179.14 51.1493 179.14 50.9253 179.14 50.648C179.14 50.3493 179.14 50.1147 179.14 49.944C179.225 48.3013 179.599 46.8933 180.26 45.72C180.921 44.5253 181.849 43.6187 183.044 43C184.239 42.36 185.636 42.04 187.236 42.04C189.028 42.04 190.521 42.4133 191.716 43.16C192.932 43.8853 193.839 44.888 194.436 46.168C195.055 47.4267 195.364 48.8773 195.364 50.52V51.256C195.364 51.4693 195.279 51.6507 195.108 51.8C194.959 51.9493 194.777 52.024 194.564 52.024H184.1C184.1 52.0453 184.1 52.088 184.1 52.152C184.1 52.1947 184.1 52.2373 184.1 52.28C184.121 52.9627 184.249 53.592 184.484 54.168C184.74 54.7227 185.092 55.1707 185.54 55.512C186.009 55.8533 186.564 56.024 187.204 56.024C187.737 56.024 188.175 55.9493 188.516 55.8C188.857 55.6507 189.135 55.4693 189.348 55.256C189.583 55.0427 189.753 54.8613 189.86 54.712C190.052 54.4987 190.201 54.3707 190.308 54.328C190.436 54.264 190.628 54.232 190.884 54.232H194.212C194.425 54.232 194.596 54.296 194.724 54.424C194.873 54.5307 194.937 54.6907 194.916 54.904C194.895 55.2453 194.713 55.672 194.372 56.184C194.052 56.6747 193.572 57.1653 192.932 57.656C192.292 58.1253 191.492 58.52 190.532 58.84C189.593 59.16 188.505 59.32 187.268 59.32ZM184.1 49.112H190.372V49.048C190.372 48.28 190.244 47.6187 189.988 47.064C189.753 46.488 189.401 46.04 188.932 45.72C188.463 45.4 187.897 45.24 187.236 45.24C186.575 45.24 186.009 45.4 185.54 45.72C185.071 46.04 184.708 46.488 184.452 47.064C184.217 47.6187 184.1 48.28 184.1 49.048V49.112ZM199.331 59C199.118 59 198.936 58.9253 198.787 58.776C198.638 58.6267 198.563 58.4347 198.563 58.2V43.16C198.563 42.9253 198.638 42.7333 198.787 42.584C198.936 42.4347 199.118 42.36 199.331 42.36H202.467C202.702 42.36 202.894 42.4347 203.043 42.584C203.192 42.7333 203.267 42.9253 203.267 43.16V44.408C203.822 43.7253 204.536 43.16 205.411 42.712C206.286 42.264 207.352 42.04 208.611 42.04C209.87 42.04 210.968 42.328 211.907 42.904C212.867 43.4587 213.614 44.28 214.147 45.368C214.702 46.4347 214.979 47.736 214.979 49.272V58.2C214.979 58.4347 214.894 58.6267 214.723 58.776C214.574 58.9253 214.392 59 214.179 59H210.787C210.552 59 210.36 58.9253 210.211 58.776C210.062 58.6267 209.987 58.4347 209.987 58.2V49.464C209.987 48.3333 209.71 47.4587 209.155 46.84C208.622 46.2 207.832 45.88 206.787 45.88C205.784 45.88 204.984 46.2 204.387 46.84C203.79 47.4587 203.491 48.3333 203.491 49.464V58.2C203.491 58.4347 203.416 58.6267 203.267 58.776C203.118 58.9253 202.936 59 202.723 59H199.331ZM226.625 59C225.303 59 224.172 58.7867 223.233 58.36C222.295 57.912 221.58 57.2293 221.089 56.312C220.62 55.3947 220.385 54.2427 220.385 52.856V46.136H217.889C217.655 46.136 217.463 46.0613 217.313 45.912C217.164 45.7627 217.089 45.5707 217.089 45.336V43.16C217.089 42.9253 217.164 42.7333 217.313 42.584C217.463 42.4347 217.655 42.36 217.889 42.36H220.385V37.08C220.385 36.8453 220.46 36.6533 220.609 36.504C220.78 36.3547 220.972 36.28 221.185 36.28H224.321C224.556 36.28 224.748 36.3547 224.897 36.504C225.047 36.6533 225.121 36.8453 225.121 37.08V42.36H229.121C229.335 42.36 229.516 42.4347 229.665 42.584C229.815 42.7333 229.889 42.9253 229.889 43.16V45.336C229.889 45.5707 229.815 45.7627 229.665 45.912C229.516 46.0613 229.335 46.136 229.121 46.136H225.121V52.472C225.121 53.2827 225.26 53.9227 225.537 54.392C225.836 54.84 226.348 55.064 227.073 55.064H229.409C229.623 55.064 229.804 55.1387 229.953 55.288C230.103 55.4373 230.177 55.6187 230.177 55.832V58.2C230.177 58.4347 230.103 58.6267 229.953 58.776C229.804 58.9253 229.623 59 229.409 59H226.625Z" fill="black"/>
<path d="M76.399 43.3408H72.7474L63.9443 28H31.2745L18.9826 43.3408H3.86691C1.48009 43.3408 -0.335516 45.4724 0.0523855 47.8287L2.37795 61.9965C2.37795 62.1085 2.4696 62.2107 2.58193 62.2107H12.5166C13.0266 57.7736 16.8005 54.3159 21.37 54.3159C25.9395 54.3159 29.7138 57.7736 30.2237 62.2107H52.99C53.5 57.7736 57.2743 54.3159 61.8438 54.3159C66.4132 54.3159 70.1872 57.7736 70.6974 62.2107H76.3992C77.8372 62.2107 79 61.0477 79 59.6095V45.9415C78.9998 44.5036 77.8372 43.3408 76.399 43.3408ZM50.5929 34.12H59.5276L65.0665 43.3408L65.26 43.9131L65.3014 44.0649H50.5929V34.12ZM27.7507 44.0512L28.0406 43.3408L35.4158 34.12H43.596V44.0651H32.0839L27.7507 44.0512Z" fill="#C05F31"/>
<path d="M21.37 57.3761C18.4836 57.3761 16.0866 59.4671 15.6073 62.2108C15.5459 62.537 15.5151 62.8839 15.5151 63.2309C15.5151 66.454 18.1366 69.0753 21.3699 69.0753C24.6035 69.0753 27.2248 66.4538 27.2248 63.2309C27.2248 62.884 27.1943 62.5372 27.1332 62.2108C26.6538 59.467 24.2568 57.3761 21.37 57.3761Z" fill="#C05F31"/>
<path d="M61.8436 57.3761C58.9569 57.3761 56.5599 59.4671 56.0806 62.2108C56.0192 62.537 55.9886 62.8839 55.9886 63.2309C55.9886 66.454 58.6098 69.0753 61.8434 69.0753C65.0767 69.0753 67.6981 66.4538 67.6981 63.2309C67.6981 62.884 67.6675 62.5372 67.6064 62.2108C67.1272 59.467 64.7302 57.3761 61.8436 57.3761Z" fill="#C05F31"/>
<path fill-rule="evenodd" clip-rule="evenodd" d="M74.0001 16.0002V18.0003H76.0001C76.0001 16.8953 75.1051 16.0002 74.0001 16.0002ZM74.0001 12.0001V14.0002C76.2061 14.0002 78.0001 15.7942 78.0001 18.0003H80C80 14.6862 77.3141 12.0001 74.0001 12.0001ZM74.0001 8V10.0001C78.411 10.0001 82 13.5892 82 18.0003H84C84 12.4771 79.523 8 74.0001 8ZM78.652 26.2344C78.64 26.2704 78.641 26.2654 78.652 26.2344V26.2344ZM78.117 23.5786C77.4221 23.2046 76.7191 22.7784 75.9921 22.4814C74.5871 21.9084 74.6821 23.6023 73.6791 24.1514C73.0271 24.5084 72.1071 23.8614 71.5381 23.5034C70.5441 22.8774 69.6631 22.0535 68.9311 21.1005C68.5561 20.6135 67.7281 19.6975 67.8301 19.0145C67.9921 17.9305 69.2741 17.8761 68.9071 16.5501C68.7111 15.84 68.3601 15.1412 68.0971 14.4572C67.7451 13.5402 67.6001 12.9531 66.5731 13.0031C65.8312 13.0391 65.3392 13.3563 64.8832 13.9513C63.6492 15.5584 63.8352 17.7251 64.6642 19.4881C65.8382 21.9832 67.8501 24.3355 69.9991 25.8555C71.4611 26.8895 73.3871 27.8284 75.1571 27.9874C76.4531 28.1044 78.2661 27.4037 78.73 25.9966C78.698 26.0946 78.667 26.1894 78.652 26.2344C78.663 26.1994 78.687 26.1286 78.73 25.9966C78.777 25.8546 78.8 25.7835 78.811 25.7515C78.797 25.7935 78.765 25.8917 78.731 25.9937C79.139 24.7537 79.189 24.1556 78.117 23.5786ZM78.811 25.7515C78.819 25.7255 78.819 25.7275 78.811 25.7515V25.7515Z" fill="#C05F31"/>
</svg>
