<svg width="90" height="27" viewBox="0 0 90 27" fill="none" xmlns="http://www.w3.org/2000/svg">
<path d="M9.32388 26C8.93988 26 8.63988 25.904 8.42387 25.712C8.20788 25.52 8.05188 25.28 7.95588 24.992L0.251875 1.88C0.203875 1.76 0.179875 1.652 0.179875 1.556C0.179875 1.34 0.251875 1.16 0.395875 1.016C0.539875 0.871999 0.719875 0.799998 0.935875 0.799998H4.10388C4.43988 0.799998 4.69188 0.895998 4.85988 1.088C5.05188 1.256 5.17188 1.424 5.21988 1.592L11.3039 20.132L17.3519 1.592C17.4239 1.424 17.5439 1.256 17.7119 1.088C17.9039 0.895998 18.1679 0.799998 18.5039 0.799998H21.6719C21.8639 0.799998 22.0319 0.871999 22.1759 1.016C22.3439 1.16 22.4279 1.34 22.4279 1.556C22.4279 1.652 22.4039 1.76 22.3559 1.88L14.6519 24.992C14.5559 25.28 14.3999 25.52 14.1839 25.712C13.9679 25.904 13.6679 26 13.2839 26H9.32388Z" fill="#C05F31"/>
<path d="M25.5177 20.168C25.3417 20.168 25.1977 20.112 25.0857 20C24.9897 19.888 24.9417 19.752 24.9417 19.592V18.008C24.9417 17.848 24.9897 17.712 25.0857 17.6C25.1977 17.488 25.3417 17.432 25.5177 17.432H32.8857C33.0457 17.432 33.1817 17.488 33.2937 17.6C33.4057 17.712 33.4617 17.848 33.4617 18.008V19.592C33.4617 19.752 33.4057 19.888 33.2937 20C33.1817 20.112 33.0457 20.168 32.8857 20.168H25.5177ZM37.2918 26C37.1318 26 36.9958 25.944 36.8838 25.832C36.7718 25.72 36.7158 25.584 36.7158 25.424V9.8C36.7158 9.624 36.7718 9.48 36.8838 9.368C36.9958 9.256 37.1318 9.2 37.2918 9.2H43.5078C45.4438 9.2 46.9718 9.648 48.0918 10.544C49.2118 11.44 49.7718 12.744 49.7718 14.456C49.7718 15.64 49.4758 16.624 48.8838 17.408C48.3078 18.192 47.5318 18.76 46.5558 19.112L50.0598 25.232C50.1078 25.328 50.1318 25.416 50.1318 25.496C50.1318 25.64 50.0758 25.76 49.9638 25.856C49.8678 25.952 49.7558 26 49.6278 26H47.4438C47.1718 26 46.9638 25.928 46.8198 25.784C46.6758 25.64 46.5638 25.496 46.4838 25.352L43.3878 19.664H40.0518V25.424C40.0518 25.584 39.9958 25.72 39.8838 25.832C39.7878 25.944 39.6518 26 39.4758 26H37.2918ZM40.0518 16.952H43.4358C44.4118 16.952 45.1398 16.736 45.6198 16.304C46.0998 15.856 46.3398 15.232 46.3398 14.432C46.3398 13.632 46.0998 13.008 45.6198 12.56C45.1558 12.096 44.4278 11.864 43.4358 11.864H40.0518V16.952ZM57.8116 26.24C56.0356 26.24 54.6276 25.728 53.5876 24.704C52.5476 23.68 51.9876 22.224 51.9076 20.336C51.8916 20.176 51.8836 19.976 51.8836 19.736C51.8836 19.48 51.8916 19.28 51.9076 19.136C51.9716 17.936 52.2436 16.896 52.7236 16.016C53.2196 15.136 53.8996 14.464 54.7636 14C55.6276 13.52 56.6436 13.28 57.8116 13.28C59.1076 13.28 60.1956 13.552 61.0756 14.096C61.9556 14.624 62.6196 15.368 63.0676 16.328C63.5156 17.272 63.7396 18.368 63.7396 19.616V20.12C63.7396 20.28 63.6836 20.416 63.5716 20.528C63.4596 20.64 63.3156 20.696 63.1396 20.696H55.1716C55.1716 20.696 55.1716 20.72 55.1716 20.768C55.1716 20.816 55.1716 20.856 55.1716 20.888C55.1876 21.448 55.2916 21.968 55.4836 22.448C55.6916 22.912 55.9876 23.288 56.3716 23.576C56.7716 23.864 57.2436 24.008 57.7876 24.008C58.2356 24.008 58.6116 23.944 58.9156 23.816C59.2196 23.672 59.4676 23.512 59.6596 23.336C59.8516 23.16 59.9876 23.016 60.0676 22.904C60.2116 22.712 60.3236 22.6 60.4036 22.568C60.4996 22.52 60.6356 22.496 60.8116 22.496H62.8756C63.0356 22.496 63.1636 22.544 63.2596 22.64C63.3716 22.736 63.4196 22.856 63.4036 23C63.3876 23.256 63.2516 23.568 62.9956 23.936C62.7556 24.304 62.4036 24.664 61.9396 25.016C61.4756 25.368 60.8916 25.664 60.1876 25.904C59.4996 26.128 58.7076 26.24 57.8116 26.24ZM55.1716 18.68H60.4756V18.608C60.4756 17.984 60.3716 17.44 60.1636 16.976C59.9556 16.512 59.6516 16.144 59.2516 15.872C58.8516 15.6 58.3716 15.464 57.8116 15.464C57.2516 15.464 56.7716 15.6 56.3716 15.872C55.9716 16.144 55.6676 16.512 55.4596 16.976C55.2676 17.44 55.1716 17.984 55.1716 18.608V18.68ZM66.8631 26C66.7031 26 66.5671 25.944 66.4551 25.832C66.3431 25.72 66.2871 25.584 66.2871 25.424V14.096C66.2871 13.936 66.3431 13.8 66.4551 13.688C66.5671 13.576 66.7031 13.52 66.8631 13.52H68.8311C68.9911 13.52 69.1271 13.576 69.2391 13.688C69.3511 13.8 69.4071 13.936 69.4071 14.096V15.08C69.8231 14.568 70.3511 14.144 70.9911 13.808C71.6471 13.456 72.4551 13.28 73.4151 13.28C74.3911 13.28 75.2391 13.504 75.9591 13.952C76.6791 14.384 77.2311 15 77.6151 15.8C78.0151 16.6 78.2151 17.56 78.2151 18.68V25.424C78.2151 25.584 78.1591 25.72 78.0471 25.832C77.9351 25.944 77.7991 26 77.6391 26H75.5271C75.3671 26 75.2311 25.944 75.1191 25.832C75.0071 25.72 74.9511 25.584 74.9511 25.424V18.824C74.9511 17.896 74.7191 17.168 74.2551 16.64C73.8071 16.112 73.1511 15.848 72.2871 15.848C71.4551 15.848 70.7911 16.112 70.2951 16.64C69.7991 17.168 69.5511 17.896 69.5511 18.824V25.424C69.5511 25.584 69.4951 25.72 69.3831 25.832C69.2711 25.944 69.1351 26 68.9751 26H66.8631ZM86.7631 26C85.8031 26 84.9951 25.832 84.3391 25.496C83.6831 25.16 83.1951 24.664 82.8751 24.008C82.5551 23.336 82.3951 22.504 82.3951 21.512V16.064H80.4991C80.3391 16.064 80.2031 16.008 80.0911 15.896C79.9791 15.784 79.9231 15.648 79.9231 15.488V14.096C79.9231 13.936 79.9791 13.8 80.0911 13.688C80.2031 13.576 80.3391 13.52 80.4991 13.52H82.3951V9.536C82.3951 9.376 82.4431 9.24 82.5391 9.128C82.6511 9.016 82.7951 8.96 82.9711 8.96H84.9151C85.0751 8.96 85.2111 9.016 85.3231 9.128C85.4351 9.24 85.4911 9.376 85.4911 9.536V13.52H88.4911C88.6511 13.52 88.7871 13.576 88.8991 13.688C89.0111 13.8 89.0671 13.936 89.0671 14.096V15.488C89.0671 15.648 89.0111 15.784 88.8991 15.896C88.7871 16.008 88.6511 16.064 88.4911 16.064H85.4911V21.272C85.4911 21.928 85.6031 22.44 85.8271 22.808C86.0671 23.176 86.4751 23.36 87.0511 23.36H88.7071C88.8671 23.36 89.0031 23.416 89.1151 23.528C89.2271 23.64 89.2831 23.776 89.2831 23.936V25.424C89.2831 25.584 89.2271 25.72 89.1151 25.832C89.0031 25.944 88.8671 26 88.7071 26H86.7631Z" fill="black"/>
</svg>
